<?xml version="1.0" encoding="UTF-8" standalone="no"?>
<!DOCTYPE svg PUBLIC "-//W3C//DTD SVG 1.1//EN" "http://www.w3.org/Graphics/SVG/1.1/DTD/svg11.dtd">
<svg width="100%" height="100%" viewBox="0 0 532 100" version="1.1" xmlns="http://www.w3.org/2000/svg" xmlns:xlink="http://www.w3.org/1999/xlink" xml:space="preserve" xmlns:serif="http://www.serif.com/" style="fill-rule:evenodd;clip-rule:evenodd;stroke-linejoin:round;stroke-miterlimit:2;">
    <g transform="matrix(1,0,0,1,-362,-1030)">
        <g id="NativeScript-Wide-Logo-Light" serif:id="NativeScript Wide Logo Light" transform="matrix(1,0,0,1,297.217,968)">
            <g id="NS-logo" transform="matrix(0.0976562,0,0,0.0976562,115,112)">
                <g transform="matrix(1,0,0,1,-2760,-512)">
                    <g id="NativeScript-Logo-Rounded" serif:id="NativeScript Logo Rounded" transform="matrix(1,0,0,1,2248,0)">
                        <path d="M1024,256C1024,114.71 909.29,0 768,0L256,0C114.71,0 0,114.71 0,256L0,768C0,909.29 114.71,1024 256,1024L768,1024C909.29,1024 1024,909.29 1024,768L1024,256Z" style="fill:none;"/>
                        <clipPath id="_clip1">
                            <path d="M1024,256C1024,114.71 909.29,0 768,0L256,0C114.71,0 0,114.71 0,256L0,768C0,909.29 114.71,1024 256,1024L768,1024C909.29,1024 1024,909.29 1024,768L1024,256Z"/>
                        </clipPath>
                        <g clip-path="url(#_clip1)">
                            <g id="Background">
                                <rect x="0" y="0" width="1024" height="1024" style="fill:rgb(101,173,241);"/>
                            </g>
                            <g transform="matrix(1,0,0,1,843,512.135)">
                                <g id="NativeScript-Logo" serif:id="NativeScript Logo">
                                    <path d="M0,-0.271L0,0.828C0,1.084 -0.195,1.296 -0.451,1.32C-33.815,4.443 -59.93,31.553 -59.93,65.729L-59.93,202.67C-59.93,212.239 -61.94,221.47 -65.57,229.899C-75.92,253.97 -99.41,271.47 -126.73,271.47L-195.93,271.47L-196.41,270.869L-465.59,-66.451L-465.59,271.47L-535.27,271.47C-572.163,271.47 -602.07,241.562 -602.07,204.67L-602.07,65.729C-602.07,31.554 -628.185,4.443 -661.549,1.32C-661.805,1.296 -662,1.084 -662,0.828L-662,-0.271C-662,-0.526 -661.806,-0.738 -661.551,-0.763C-628.306,-4 -602.33,-31.784 -602.33,-65.88L-602.33,-204.94C-602.33,-214.23 -600.43,-223.09 -597,-231.121C-586.82,-255 -563.13,-271.741 -535.53,-271.741L-465.87,-271.741L-465.59,-271.391L-196.41,65.939L-196.41,-271.741L-126.47,-271.741C-89.577,-271.741 -59.67,-241.833 -59.67,-204.94L-59.67,-65.88C-59.67,-31.784 -33.694,-4 -0.448,-0.763C-0.194,-0.738 0,-0.526 0,-0.271" style="fill:white;fill-rule:nonzero;"/>
                                </g>
                            </g>
                        </g>
                    </g>
                </g>
            </g>
            <g transform="matrix(1,0,0,1,-273.694,-797.864)">
                <g transform="matrix(68,0,0,68,458.143,935.918)">
                    <path d="M0.672,-0.727L0.672,-0L0.539,-0L0.222,-0.458L0.217,-0.458L0.217,-0L0.063,-0L0.063,-0.727L0.198,-0.727L0.512,-0.27L0.518,-0.27L0.518,-0.727L0.672,-0.727Z" style="fill:rgb(101,173,241);fill-rule:nonzero;"/>
                </g>
                <g transform="matrix(68,0,0,68,508.129,935.918)">
                    <path d="M0.216,0.01C0.164,0.01 0.121,-0.003 0.086,-0.031C0.052,-0.058 0.035,-0.098 0.035,-0.152C0.035,-0.193 0.044,-0.225 0.064,-0.248C0.083,-0.271 0.108,-0.288 0.139,-0.299C0.17,-0.31 0.204,-0.317 0.24,-0.32C0.287,-0.325 0.321,-0.33 0.341,-0.335C0.362,-0.34 0.372,-0.352 0.372,-0.369L0.372,-0.371C0.372,-0.394 0.365,-0.411 0.351,-0.424C0.337,-0.436 0.317,-0.442 0.291,-0.442C0.264,-0.442 0.242,-0.436 0.226,-0.424C0.21,-0.413 0.199,-0.397 0.194,-0.379L0.054,-0.391C0.064,-0.44 0.09,-0.48 0.132,-0.509C0.173,-0.538 0.226,-0.553 0.292,-0.553C0.332,-0.553 0.37,-0.546 0.405,-0.533C0.44,-0.521 0.469,-0.501 0.491,-0.474C0.512,-0.446 0.523,-0.411 0.523,-0.368L0.523,-0L0.38,-0L0.38,-0.076L0.375,-0.076C0.362,-0.05 0.342,-0.03 0.316,-0.014C0.289,0.002 0.256,0.01 0.216,0.01ZM0.259,-0.094C0.292,-0.094 0.32,-0.104 0.341,-0.123C0.362,-0.142 0.373,-0.166 0.373,-0.195L0.373,-0.253C0.367,-0.249 0.358,-0.245 0.345,-0.242C0.333,-0.239 0.32,-0.236 0.306,-0.234C0.291,-0.232 0.279,-0.23 0.268,-0.228C0.241,-0.225 0.22,-0.217 0.204,-0.206C0.187,-0.195 0.179,-0.179 0.179,-0.157C0.179,-0.136 0.187,-0.121 0.202,-0.11C0.217,-0.099 0.236,-0.094 0.259,-0.094Z" style="fill:rgb(101,173,241);fill-rule:nonzero;"/>
                </g>
                <g transform="matrix(68,0,0,68,547.586,935.918)">
                    <path d="M0.35,-0.545L0.35,-0.432L0.248,-0.432L0.248,-0.168C0.248,-0.147 0.253,-0.133 0.262,-0.125C0.272,-0.118 0.284,-0.114 0.299,-0.114C0.306,-0.114 0.313,-0.115 0.32,-0.116C0.327,-0.118 0.333,-0.119 0.337,-0.119L0.36,-0.007C0.353,-0.004 0.342,-0.002 0.328,0.002C0.315,0.005 0.298,0.007 0.278,0.007C0.223,0.01 0.179,-0.002 0.146,-0.028C0.113,-0.054 0.096,-0.094 0.097,-0.148L0.097,-0.432L0.022,-0.432L0.022,-0.545L0.097,-0.545L0.097,-0.676L0.248,-0.676L0.248,-0.545L0.35,-0.545Z" style="fill:rgb(101,173,241);fill-rule:nonzero;"/>
                </g>
                <g transform="matrix(68,0,0,68,574.004,935.918)">
                    <path d="M0.06,-0L0.06,-0.545L0.212,-0.545L0.212,-0L0.06,-0ZM0.136,-0.616C0.114,-0.616 0.095,-0.623 0.079,-0.638C0.063,-0.653 0.055,-0.671 0.055,-0.692C0.055,-0.714 0.063,-0.732 0.079,-0.746C0.095,-0.761 0.114,-0.769 0.136,-0.769C0.159,-0.769 0.178,-0.761 0.194,-0.746C0.21,-0.732 0.218,-0.714 0.218,-0.692C0.218,-0.671 0.21,-0.653 0.194,-0.638C0.178,-0.623 0.159,-0.616 0.136,-0.616Z" style="fill:rgb(101,173,241);fill-rule:nonzero;"/>
                </g>
                <g transform="matrix(68,0,0,68,592.501,935.918)">
                    <path d="M0.569,-0.545L0.378,-0L0.208,-0L0.017,-0.545L0.177,-0.545L0.29,-0.155L0.296,-0.155L0.409,-0.545L0.569,-0.545Z" style="fill:rgb(101,173,241);fill-rule:nonzero;"/>
                </g>
                <g transform="matrix(68,0,0,68,631.113,935.918)">
                    <path d="M0.309,0.011C0.253,0.011 0.205,-0.001 0.164,-0.024C0.124,-0.046 0.093,-0.079 0.071,-0.121C0.049,-0.163 0.038,-0.213 0.038,-0.27C0.038,-0.326 0.049,-0.376 0.071,-0.418C0.093,-0.46 0.124,-0.493 0.163,-0.517C0.203,-0.541 0.249,-0.553 0.303,-0.553C0.351,-0.553 0.394,-0.542 0.433,-0.522C0.472,-0.502 0.502,-0.471 0.525,-0.43C0.548,-0.389 0.559,-0.337 0.559,-0.276L0.559,-0.234L0.188,-0.234L0.188,-0.234C0.188,-0.193 0.199,-0.161 0.221,-0.137C0.243,-0.114 0.274,-0.102 0.311,-0.102C0.337,-0.102 0.359,-0.108 0.377,-0.118C0.396,-0.129 0.409,-0.145 0.416,-0.165L0.556,-0.156C0.545,-0.106 0.518,-0.065 0.475,-0.035C0.432,-0.004 0.376,0.011 0.309,0.011ZM0.188,-0.328L0.417,-0.328C0.417,-0.36 0.406,-0.387 0.386,-0.408C0.365,-0.429 0.338,-0.44 0.305,-0.44C0.272,-0.44 0.244,-0.429 0.223,-0.407C0.201,-0.385 0.19,-0.359 0.188,-0.328Z" style="fill:rgb(101,173,241);fill-rule:nonzero;"/>
                </g>
                <g transform="matrix(68,0,0,68,671.754,935.918)">
                    <path d="M0.458,-0.518C0.455,-0.547 0.443,-0.569 0.421,-0.585C0.399,-0.601 0.37,-0.609 0.333,-0.609C0.296,-0.609 0.267,-0.601 0.247,-0.586C0.227,-0.57 0.217,-0.551 0.217,-0.527C0.216,-0.501 0.227,-0.482 0.25,-0.468C0.273,-0.455 0.3,-0.444 0.332,-0.437L0.397,-0.422C0.439,-0.412 0.477,-0.398 0.509,-0.38C0.542,-0.362 0.568,-0.339 0.587,-0.311C0.606,-0.283 0.615,-0.248 0.615,-0.208C0.615,-0.141 0.59,-0.088 0.54,-0.049C0.491,-0.009 0.422,0.01 0.333,0.01C0.244,0.01 0.174,-0.01 0.121,-0.05C0.069,-0.09 0.042,-0.15 0.04,-0.228L0.189,-0.228C0.191,-0.192 0.206,-0.164 0.232,-0.146C0.258,-0.128 0.291,-0.119 0.331,-0.119C0.37,-0.119 0.401,-0.127 0.425,-0.143C0.448,-0.16 0.46,-0.182 0.46,-0.208C0.46,-0.233 0.449,-0.252 0.428,-0.265C0.406,-0.278 0.376,-0.29 0.336,-0.299L0.257,-0.319C0.196,-0.334 0.147,-0.357 0.112,-0.389C0.076,-0.421 0.059,-0.464 0.059,-0.517C0.059,-0.561 0.07,-0.6 0.094,-0.633C0.118,-0.666 0.151,-0.691 0.192,-0.71C0.234,-0.728 0.281,-0.737 0.335,-0.737C0.388,-0.737 0.436,-0.728 0.476,-0.71C0.516,-0.691 0.548,-0.665 0.57,-0.632C0.593,-0.6 0.604,-0.561 0.605,-0.518L0.458,-0.518Z" style="fill:rgb(101,173,241);fill-rule:nonzero;"/>
                </g>
                <g transform="matrix(68,0,0,68,716.282,935.918)">
                    <path d="M0.307,0.011C0.251,0.011 0.203,-0.001 0.163,-0.025C0.123,-0.049 0.092,-0.082 0.07,-0.124C0.049,-0.167 0.038,-0.215 0.038,-0.271C0.038,-0.326 0.049,-0.376 0.071,-0.418C0.093,-0.46 0.123,-0.493 0.163,-0.517C0.203,-0.541 0.251,-0.553 0.306,-0.553C0.354,-0.553 0.395,-0.544 0.431,-0.527C0.467,-0.509 0.495,-0.485 0.516,-0.454C0.537,-0.423 0.548,-0.386 0.55,-0.344L0.408,-0.344C0.404,-0.371 0.393,-0.393 0.376,-0.41C0.359,-0.426 0.336,-0.435 0.309,-0.435C0.274,-0.435 0.245,-0.421 0.224,-0.392C0.203,-0.364 0.192,-0.324 0.192,-0.273C0.192,-0.221 0.203,-0.18 0.224,-0.152C0.245,-0.123 0.273,-0.109 0.309,-0.109C0.335,-0.109 0.357,-0.117 0.374,-0.133C0.392,-0.148 0.403,-0.171 0.408,-0.2L0.55,-0.2C0.548,-0.158 0.537,-0.122 0.517,-0.09C0.496,-0.058 0.468,-0.033 0.433,-0.016C0.397,0.002 0.355,0.011 0.307,0.011Z" style="fill:rgb(101,173,241);fill-rule:nonzero;"/>
                </g>
                <g transform="matrix(68,0,0,68,756.222,935.918)">
                    <path d="M0.06,-0L0.06,-0.545L0.207,-0.545L0.207,-0.45L0.213,-0.45C0.223,-0.484 0.239,-0.51 0.263,-0.527C0.286,-0.545 0.313,-0.553 0.344,-0.553C0.361,-0.553 0.376,-0.551 0.391,-0.548L0.391,-0.414C0.384,-0.416 0.374,-0.418 0.362,-0.42C0.349,-0.421 0.338,-0.422 0.327,-0.422C0.294,-0.422 0.266,-0.411 0.244,-0.39C0.223,-0.369 0.212,-0.342 0.212,-0.309L0.212,-0L0.06,-0Z" style="fill:rgb(101,173,241);fill-rule:nonzero;"/>
                </g>
                <g transform="matrix(68,0,0,68,784.016,935.918)">
                    <path d="M0.06,-0L0.06,-0.545L0.212,-0.545L0.212,-0L0.06,-0ZM0.136,-0.616C0.114,-0.616 0.095,-0.623 0.079,-0.638C0.063,-0.653 0.055,-0.671 0.055,-0.692C0.055,-0.714 0.063,-0.732 0.079,-0.746C0.095,-0.761 0.114,-0.769 0.136,-0.769C0.159,-0.769 0.178,-0.761 0.194,-0.746C0.21,-0.732 0.218,-0.714 0.218,-0.692C0.218,-0.671 0.21,-0.653 0.194,-0.638C0.178,-0.623 0.159,-0.616 0.136,-0.616Z" style="fill:rgb(101,173,241);fill-rule:nonzero;"/>
                </g>
                <g transform="matrix(68,0,0,68,802.514,935.918)">
                    <path d="M0.06,0.205L0.06,-0.545L0.21,-0.545L0.21,-0.454L0.216,-0.454C0.223,-0.469 0.233,-0.484 0.245,-0.499C0.258,-0.514 0.275,-0.527 0.295,-0.537C0.316,-0.547 0.341,-0.553 0.371,-0.553C0.411,-0.553 0.448,-0.542 0.482,-0.521C0.515,-0.501 0.542,-0.47 0.562,-0.428C0.582,-0.387 0.592,-0.335 0.592,-0.272C0.592,-0.211 0.583,-0.16 0.563,-0.118C0.543,-0.076 0.517,-0.045 0.483,-0.023C0.45,-0.002 0.413,0.009 0.371,0.009C0.342,0.009 0.317,0.004 0.296,-0.006C0.276,-0.015 0.259,-0.028 0.246,-0.042C0.233,-0.057 0.223,-0.072 0.216,-0.087L0.212,-0.087L0.212,0.205L0.06,0.205ZM0.208,-0.273C0.208,-0.224 0.218,-0.185 0.238,-0.156C0.258,-0.126 0.287,-0.112 0.323,-0.112C0.36,-0.112 0.389,-0.126 0.408,-0.156C0.428,-0.186 0.438,-0.225 0.438,-0.273C0.438,-0.32 0.428,-0.358 0.409,-0.388C0.389,-0.417 0.361,-0.432 0.323,-0.432C0.286,-0.432 0.258,-0.418 0.238,-0.389C0.218,-0.36 0.208,-0.321 0.208,-0.273Z" style="fill:rgb(101,173,241);fill-rule:nonzero;"/>
                </g>
                <g transform="matrix(68,0,0,68,845.521,935.918)">
                    <path d="M0.35,-0.545L0.35,-0.432L0.248,-0.432L0.248,-0.168C0.248,-0.147 0.253,-0.133 0.262,-0.125C0.272,-0.118 0.284,-0.114 0.299,-0.114C0.306,-0.114 0.313,-0.115 0.32,-0.116C0.327,-0.118 0.333,-0.119 0.337,-0.119L0.36,-0.007C0.353,-0.004 0.342,-0.002 0.328,0.002C0.315,0.005 0.298,0.007 0.278,0.007C0.223,0.01 0.179,-0.002 0.146,-0.028C0.113,-0.054 0.096,-0.094 0.097,-0.148L0.097,-0.432L0.022,-0.432L0.022,-0.545L0.097,-0.545L0.097,-0.676L0.248,-0.676L0.248,-0.545L0.35,-0.545Z" style="fill:rgb(101,173,241);fill-rule:nonzero;"/>
                </g>
            </g>
        </g>
    </g>
</svg>